<?xml version="1.0" encoding="utf-8"?>
<!-- Generator: Adobe Illustrator 21.0.2, SVG Export Plug-In . SVG Version: 6.00 Build 0)  -->
<svg version="1.1" id="Layer_1" xmlns="http://www.w3.org/2000/svg" xmlns:xlink="http://www.w3.org/1999/xlink" x="0px" y="0px"
	 viewBox="0 0 500 500" style="enable-background:new 0 0 500 500;" xml:space="preserve">
<style type="text/css">
	.st0{fill:#68CBF4;}
	.st1{fill:#6A87C4;}
	.st2{fill:#FFFFFF;}
</style>
<g>
	<path class="st0" d="M293.3,197.1c-36.3,4.1-54.6-24.2-79.1-25c-24-0.8-37.9,20.1-29.3,53.8c9.7,38.3-8.5,57.7-6.8,88.9
		c0.7,13.1,13.8,31.7,30,30c21.3-2.3,29.9-26.8,48.7-43.7c16.9-15.1,46.3-25.7,64-36.7c17.4-10.8,37.8-18.7,39.5-42
		C361.3,206.8,347.6,190.9,293.3,197.1z"/>
	<path class="st1" d="M333.6,277.7c-11.3,18.5-33.4,10.9-52.1,9.3c-36.7-3.2-61.6,45.5-100.1,20.3c-42.6-27.9-42.9-78.6-0.5-98
		C299.6,154.8,343.8,260.9,333.6,277.7z"/>
	<g>
		<path class="st2" d="M164.3,338.1c-0.2,0-0.4-0.1-0.5-0.2c-0.3-0.3-0.3-0.8,0-1.1l41.8-41.8c0.3-0.3,0.8-0.3,1.1,0
			c0.3,0.3,0.3,0.8,0,1.1l-41.8,41.8C164.7,338,164.5,338.1,164.3,338.1z"/>
	</g>
	<g>
		<path class="st2" d="M226,209.8c-0.2,0-0.4-0.1-0.5-0.2c-0.3-0.3-0.3-0.8,0-1.1l44.8-44.8c0.3-0.3,0.8-0.3,1.1,0
			c0.3,0.3,0.3,0.8,0,1.1l-44.8,44.8C226.4,209.7,226.2,209.8,226,209.8z"/>
	</g>
</g>
</svg>
